# xmcd CD database file
#
# Track frame offsets:
#	150
#	14805
#	29153
#	43956
#	57092
#	70000
#	85770
#	101437
#	120294
#	133627
#	147914
#	173867
#	194045
#	210307
#	227711
#
# Disc length: 3357 seconds
#
# Revision: 1
# Processed by: cddbd v1.5.2PL0 Copyright (c) Steve Scherf et al.
# Submitted via: CDex 1.70beta2
#
DISCID=d60d1b0f
DTITLE=Various Artist - PianoBar - Jazz Meets Classic
DYEAR=1900
DGENRE=Jazz
TTITLE0=Swingin' Bach
TTITLE1=Minutes Waltz
TTITLE2=Dreaming
TTITLE3=Tender Notturno
TTITLE4=Impromptu
TTITLE5=The blue Hour
TTITLE6=Waltz For Toutzy
TTITLE7=Loving Spirit
TTITLE8=Dear Frederique
TTITLE9=Slawisher Tanz
TTITLE10=bacarole
TTITLE11=Love To Erroll
TTITLE12=Wonderful Rose
TTITLE13=Whisper From Eternity
TTITLE14=Concerto De Aranjuez
EXTD=
EXTT0=
EXTT1=
EXTT2=
EXTT3=
EXTT4=
EXTT5=
EXTT6=
EXTT7=
EXTT8=
EXTT9=
EXTT10=
EXTT11=
EXTT12=
EXTT13=
EXTT14=
PLAYORDER=
